<?xml version="1.0" encoding="iso-8859-1"?>
<!-- Generator: Adobe Illustrator 19.0.0, SVG Export Plug-In . SVG Version: 6.00 Build 0)  -->
<svg xmlns="http://www.w3.org/2000/svg" xmlns:xlink="http://www.w3.org/1999/xlink" version="1.1" id="Layer_1" x="0px" y="0px" viewBox="0 0 397.015 397.015" style="enable-background:new 0 0 397.015 397.015;" xml:space="preserve" width="512" height="512">
<g>
	<g>
		<path style="fill:#35D8B9;" d="M381.591,190.576c0,101.12-81.97,183.09-183.08,183.09c-6.8,0-13.51-0.37-20.11-1.1    c-20.71-2.26-40.37-7.98-58.42-16.56l-64.71,33.51l11.19-72.13c-31.6-32.9-51.03-77.58-51.03-126.81    c0-101.11,81.96-183.08,183.08-183.08c25.12,0,49.05,5.06,70.83,14.21C335.281,49.396,381.591,114.576,381.591,190.576z"/>
		<path style="fill:#70E5CF;" d="M381.591,190.576c0,101.12-81.97,183.09-183.08,183.09c-6.8,0-13.51-0.37-20.11-1.1l90.94-350.86    C335.281,49.396,381.591,114.576,381.591,190.576z"/>
		<g>
			<circle style="fill:#E6E6E6;" cx="198.508" cy="94.536" r="32.208"/>
			<polygon style="fill:#E6E6E6;" points="226.478,284.899 226.478,179.348 226.478,154.423 170.537,154.423 154.497,154.423      154.497,179.348 170.537,179.348 170.537,284.899 154.497,284.899 154.497,309.823 170.537,309.823 226.478,309.823      242.518,309.823 242.518,284.899    "/>
		</g>
	</g>
	<g>
		<path style="fill:#333333;" d="M58.489,319.863L47.86,388.365c-0.433,2.792,0.739,5.589,3.032,7.239    c1.3,0.936,2.836,1.411,4.379,1.411c1.179,0,2.362-0.277,3.448-0.84l61.445-31.82c24.678,11.155,51.013,16.807,78.342,16.807    c105.086,0,190.581-85.494,190.581-190.581C389.088,85.494,303.594,0,198.507,0S7.927,85.494,7.927,190.581    C7.927,238.79,25.855,284.551,58.489,319.863z M198.507,15c96.815,0,175.581,78.765,175.581,175.581    c0,96.816-78.765,175.581-175.581,175.581c-26.343,0-51.679-5.697-75.304-16.931c-2.118-1.008-4.586-0.965-6.669,0.113    l-51.584,26.713l8.925-57.518c0.359-2.312-0.382-4.658-2.002-6.346c-31.563-32.857-48.945-76.047-48.945-121.613    C22.927,93.765,101.692,15,198.507,15z"/>
		<path style="fill:#333333;" d="M198.507,134.244c21.896,0,39.708-17.813,39.708-39.708c0-21.896-17.813-39.708-39.708-39.708    c-21.895,0-39.708,17.813-39.708,39.708C158.799,116.431,176.612,134.244,198.507,134.244z M198.507,69.828    c13.625,0,24.708,11.084,24.708,24.708c0,13.624-11.084,24.708-24.708,24.708c-13.624,0-24.708-11.084-24.708-24.708    C173.799,80.912,184.883,69.828,198.507,69.828z"/>
		<path style="fill:#333333;" d="M154.497,317.323h88.021c4.142,0,7.5-3.358,7.5-7.5v-24.924c0-4.142-3.358-7.5-7.5-7.5h-8.54    V154.423c0-4.142-3.358-7.5-7.5-7.5h-71.981c-4.142,0-7.5,3.358-7.5,7.5v24.924c0,4.142,3.358,7.5,7.5,7.5h8.54v90.551h-8.54    c-4.142,0-7.5,3.358-7.5,7.5v24.924C146.997,313.965,150.355,317.323,154.497,317.323z M161.997,292.399h8.54    c4.142,0,7.5-3.358,7.5-7.5V179.348c0-4.142-3.358-7.5-7.5-7.5h-8.54v-9.924h56.981v122.976c0,4.142,3.358,7.5,7.5,7.5h8.54v9.924    h-73.021V292.399z"/>
	</g>
</g>















</svg>
