<?xml version="1.0" encoding="iso-8859-1"?>
<!-- Generator: Adobe Illustrator 19.0.0, SVG Export Plug-In . SVG Version: 6.00 Build 0)  -->
<svg version="1.1" id="Layer_1" xmlns="http://www.w3.org/2000/svg" xmlns:xlink="http://www.w3.org/1999/xlink" x="0px" y="0px"
	 viewBox="0 0 512 512" style="enable-background:new 0 0 512 512;" xml:space="preserve">
<path style="fill:#77757F;" d="M496.185,314.573l-54.317-47.735c0.209-3.617,0.313-7.236,0.313-10.837
	c0-3.603-0.104-7.222-0.313-10.839l54.314-47.734c8.332-7.323,10.338-19.51,4.791-29.117l-46.545-80.618
	c-5.548-9.607-17.113-13.964-27.612-10.409l-68.489,23.17c-6.052-3.99-12.327-7.621-18.786-10.87L325.367,18.71
	C323.191,7.83,313.639,0,302.545,0H256h-46.545c-11.093,0-20.646,7.83-22.821,18.708l-14.175,70.873
	c-6.459,3.249-12.733,6.881-18.786,10.87l-68.492-23.17c-10.505-3.556-22.067,0.802-27.612,10.409l-46.545,80.62
	c-5.547,9.607-3.541,21.794,4.791,29.117l54.317,47.734c-0.209,3.612-0.313,7.232-0.313,10.839c0,3.607,0.104,7.229,0.313,10.839
	l-54.317,47.734c-8.332,7.323-10.338,19.51-4.791,29.117l46.545,80.618c5.547,9.607,17.105,13.964,27.612,10.409l68.49-23.17
	c6.052,3.99,12.327,7.621,18.787,10.87l14.175,70.873c2.175,10.879,11.728,18.71,22.821,18.71H256h46.545
	c11.093,0,20.646-7.83,22.821-18.708l14.175-70.873c6.457-3.249,12.733-6.881,18.786-10.87l68.492,23.17
	c10.51,3.556,22.067-0.802,27.612-10.409l46.545-80.62C506.523,334.083,504.517,321.896,496.185,314.573z M256,302.545
	c-25.665,0-46.545-20.88-46.545-46.545s20.88-46.545,46.545-46.545c25.665,0,46.545,20.88,46.545,46.545
	S281.665,302.545,256,302.545z"/>
<path style="fill:#57575C;" d="M11.024,343.692l46.545,80.618c5.547,9.607,17.105,13.964,27.612,10.409l68.49-23.17
	c6.052,3.99,12.327,7.621,18.787,10.87l14.175,70.873C188.809,504.169,198.361,512,209.455,512H256V302.545
	c-25.665,0-46.545-20.88-46.545-46.545s20.88-46.545,46.545-46.545V0h-46.545c-11.093,0-20.646,7.83-22.821,18.708l-14.175,70.873
	c-6.459,3.249-12.733,6.881-18.786,10.87l-68.492-23.17c-10.505-3.556-22.067,0.802-27.612,10.409l-46.545,80.62
	c-5.547,9.607-3.541,21.794,4.791,29.117l54.317,47.734c-0.209,3.612-0.313,7.232-0.313,10.839c0,3.607,0.104,7.229,0.313,10.839
	l-54.317,47.734C7.483,321.897,5.477,334.083,11.024,343.692z"/>
<g>
</g>
<g>
</g>
<g>
</g>
<g>
</g>
<g>
</g>
<g>
</g>
<g>
</g>
<g>
</g>
<g>
</g>
<g>
</g>
<g>
</g>
<g>
</g>
<g>
</g>
<g>
</g>
<g>
</g>
</svg>
